<mxfile host="app.diagrams.net" agent="Mozilla/5.0 (Windows NT 10.0; Win64; x64) AppleWebKit/537.36 (KHTML, like Gecko) Chrome/131.0.0.0 Safari/537.36" version="26.0.4">
  <diagram name="Page-1" id="c37626ed-c26b-45fb-9056-f9ebc6bb27b6">
    <mxGraphModel dx="1434" dy="752" grid="1" gridSize="10" guides="1" tooltips="1" connect="1" arrows="1" fold="1" page="1" pageScale="1" pageWidth="1100" pageHeight="850" background="none" math="0" shadow="0">
      <root>
        <mxCell id="0" />
        <mxCell id="1" parent="0" />
        <mxCell id="J3IBmnWqB0hVyUZKpFDS-2" value="Router" style="shape=mxgraph.cisco.routers.router;sketch=0;html=1;pointerEvents=1;dashed=0;fillColor=#036897;strokeColor=#ffffff;strokeWidth=2;verticalLabelPosition=bottom;verticalAlign=top;align=center;outlineConnect=0;" parent="1" vertex="1">
          <mxGeometry x="560" y="60" width="78" height="53" as="geometry" />
        </mxCell>
        <mxCell id="J3IBmnWqB0hVyUZKpFDS-5" style="rounded=0;orthogonalLoop=1;jettySize=auto;html=1;shape=link;" parent="1" edge="1">
          <mxGeometry relative="1" as="geometry">
            <mxPoint x="548" y="260" as="sourcePoint" />
            <mxPoint x="650" y="260" as="targetPoint" />
          </mxGeometry>
        </mxCell>
        <mxCell id="J3IBmnWqB0hVyUZKpFDS-12" value="" style="edgeStyle=orthogonalEdgeStyle;rounded=0;orthogonalLoop=1;jettySize=auto;html=1;shape=link;entryX=0;entryY=0.5;entryDx=0;entryDy=0;entryPerimeter=0;" parent="1" source="J3IBmnWqB0hVyUZKpFDS-3" target="J3IBmnWqB0hVyUZKpFDS-10" edge="1">
          <mxGeometry relative="1" as="geometry">
            <Array as="points">
              <mxPoint x="518" y="330" />
              <mxPoint x="610" y="330" />
              <mxPoint x="610" y="525" />
            </Array>
          </mxGeometry>
        </mxCell>
        <mxCell id="03zcDBJ4dY8-ipxOE5NL-5" value="" style="edgeStyle=orthogonalEdgeStyle;rounded=0;orthogonalLoop=1;jettySize=auto;html=1;" parent="1" source="J3IBmnWqB0hVyUZKpFDS-3" target="J3IBmnWqB0hVyUZKpFDS-19" edge="1">
          <mxGeometry relative="1" as="geometry" />
        </mxCell>
        <mxCell id="J3IBmnWqB0hVyUZKpFDS-3" value="48 Port Managed" style="shape=mxgraph.cisco.switches.layer_3_switch;sketch=0;html=1;pointerEvents=1;dashed=0;fillColor=#036897;strokeColor=#ffffff;strokeWidth=2;verticalLabelPosition=bottom;verticalAlign=top;align=center;outlineConnect=0;" parent="1" vertex="1">
          <mxGeometry x="486" y="240" width="64" height="64" as="geometry" />
        </mxCell>
        <mxCell id="J3IBmnWqB0hVyUZKpFDS-13" value="" style="edgeStyle=orthogonalEdgeStyle;rounded=0;orthogonalLoop=1;jettySize=auto;html=1;shape=link;" parent="1" source="J3IBmnWqB0hVyUZKpFDS-4" target="J3IBmnWqB0hVyUZKpFDS-10" edge="1">
          <mxGeometry relative="1" as="geometry" />
        </mxCell>
        <mxCell id="03zcDBJ4dY8-ipxOE5NL-2" value="" style="edgeStyle=orthogonalEdgeStyle;rounded=0;orthogonalLoop=1;jettySize=auto;html=1;shape=link;" parent="1" source="J3IBmnWqB0hVyUZKpFDS-4" target="J3IBmnWqB0hVyUZKpFDS-3" edge="1">
          <mxGeometry relative="1" as="geometry">
            <Array as="points">
              <mxPoint x="600" y="280" />
              <mxPoint x="600" y="280" />
            </Array>
          </mxGeometry>
        </mxCell>
        <mxCell id="J3IBmnWqB0hVyUZKpFDS-4" value="48 Port Managed" style="shape=mxgraph.cisco.switches.layer_3_switch;sketch=0;html=1;pointerEvents=1;dashed=0;fillColor=#036897;strokeColor=#ffffff;strokeWidth=2;verticalLabelPosition=bottom;verticalAlign=top;align=center;outlineConnect=0;" parent="1" vertex="1">
          <mxGeometry x="652" y="240" width="64" height="64" as="geometry" />
        </mxCell>
        <mxCell id="J3IBmnWqB0hVyUZKpFDS-6" style="edgeStyle=orthogonalEdgeStyle;rounded=0;orthogonalLoop=1;jettySize=auto;html=1;entryX=0.5;entryY=0;entryDx=0;entryDy=0;entryPerimeter=0;endArrow=none;endFill=0;" parent="1" source="J3IBmnWqB0hVyUZKpFDS-2" target="J3IBmnWqB0hVyUZKpFDS-3" edge="1">
          <mxGeometry relative="1" as="geometry" />
        </mxCell>
        <mxCell id="J3IBmnWqB0hVyUZKpFDS-7" style="edgeStyle=orthogonalEdgeStyle;rounded=0;orthogonalLoop=1;jettySize=auto;html=1;entryX=0.5;entryY=0;entryDx=0;entryDy=0;entryPerimeter=0;exitX=1;exitY=0.5;exitDx=0;exitDy=0;exitPerimeter=0;endArrow=none;endFill=0;" parent="1" source="J3IBmnWqB0hVyUZKpFDS-2" target="J3IBmnWqB0hVyUZKpFDS-4" edge="1">
          <mxGeometry relative="1" as="geometry">
            <mxPoint x="650" y="146" as="sourcePoint" />
            <Array as="points">
              <mxPoint x="684" y="86" />
            </Array>
          </mxGeometry>
        </mxCell>
        <mxCell id="J3IBmnWqB0hVyUZKpFDS-8" value="5 Port Unmanaged" style="shape=mxgraph.cisco.switches.layer_2_remote_switch;sketch=0;html=1;pointerEvents=1;dashed=0;fillColor=#036897;strokeColor=#ffffff;strokeWidth=2;verticalLabelPosition=bottom;verticalAlign=top;align=center;outlineConnect=0;" parent="1" vertex="1">
          <mxGeometry x="333" y="500" width="101" height="50" as="geometry" />
        </mxCell>
        <mxCell id="J3IBmnWqB0hVyUZKpFDS-9" value="24 Port Managed" style="shape=mxgraph.cisco.switches.layer_2_remote_switch;sketch=0;html=1;pointerEvents=1;dashed=0;fillColor=#036897;strokeColor=#ffffff;strokeWidth=2;verticalLabelPosition=bottom;verticalAlign=top;align=center;outlineConnect=0;" parent="1" vertex="1">
          <mxGeometry x="467.5" y="500" width="101" height="50" as="geometry" />
        </mxCell>
        <mxCell id="J3IBmnWqB0hVyUZKpFDS-10" value="24 Port Managed" style="shape=mxgraph.cisco.switches.layer_2_remote_switch;sketch=0;html=1;pointerEvents=1;dashed=0;fillColor=#036897;strokeColor=#ffffff;strokeWidth=2;verticalLabelPosition=bottom;verticalAlign=top;align=center;outlineConnect=0;" parent="1" vertex="1">
          <mxGeometry x="633.5" y="500" width="101" height="50" as="geometry" />
        </mxCell>
        <mxCell id="J3IBmnWqB0hVyUZKpFDS-17" value="" style="edgeStyle=orthogonalEdgeStyle;rounded=0;orthogonalLoop=1;jettySize=auto;html=1;entryX=1;entryY=0.5;entryDx=0;entryDy=0;entryPerimeter=0;endArrow=none;endFill=0;" parent="1" source="J3IBmnWqB0hVyUZKpFDS-11" target="J3IBmnWqB0hVyUZKpFDS-4" edge="1">
          <mxGeometry relative="1" as="geometry">
            <mxPoint x="854.5" y="320" as="targetPoint" />
            <Array as="points">
              <mxPoint x="864" y="272" />
            </Array>
          </mxGeometry>
        </mxCell>
        <mxCell id="J3IBmnWqB0hVyUZKpFDS-11" value="8 Port Managed" style="shape=mxgraph.cisco.switches.layer_2_remote_switch;sketch=0;html=1;pointerEvents=1;dashed=0;fillColor=#036897;strokeColor=#ffffff;strokeWidth=2;verticalLabelPosition=bottom;verticalAlign=top;align=center;outlineConnect=0;" parent="1" vertex="1">
          <mxGeometry x="804" y="500" width="101" height="50" as="geometry" />
        </mxCell>
        <mxCell id="J3IBmnWqB0hVyUZKpFDS-20" value="" style="edgeStyle=orthogonalEdgeStyle;rounded=0;orthogonalLoop=1;jettySize=auto;html=1;endArrow=none;endFill=0;exitX=0.5;exitY=0;exitDx=0;exitDy=0;exitPerimeter=0;" parent="1" source="J3IBmnWqB0hVyUZKpFDS-8" target="J3IBmnWqB0hVyUZKpFDS-3" edge="1">
          <mxGeometry relative="1" as="geometry">
            <Array as="points">
              <mxPoint x="384" y="310" />
              <mxPoint x="518" y="310" />
            </Array>
          </mxGeometry>
        </mxCell>
        <mxCell id="J3IBmnWqB0hVyUZKpFDS-19" value="PiHole NanoPi DHCP" style="shape=mxgraph.cisco.servers.communications_server;sketch=0;html=1;pointerEvents=1;dashed=0;fillColor=#036897;strokeColor=#ffffff;strokeWidth=2;verticalLabelPosition=bottom;verticalAlign=top;align=center;outlineConnect=0;" parent="1" vertex="1">
          <mxGeometry x="380" y="244" width="54" height="56" as="geometry" />
        </mxCell>
        <mxCell id="03zcDBJ4dY8-ipxOE5NL-6" style="edgeStyle=orthogonalEdgeStyle;rounded=0;orthogonalLoop=1;jettySize=auto;html=1;entryX=0.5;entryY=1;entryDx=0;entryDy=0;entryPerimeter=0;shape=link;" parent="1" source="J3IBmnWqB0hVyUZKpFDS-9" target="J3IBmnWqB0hVyUZKpFDS-3" edge="1">
          <mxGeometry relative="1" as="geometry" />
        </mxCell>
        <mxCell id="03zcDBJ4dY8-ipxOE5NL-7" style="edgeStyle=orthogonalEdgeStyle;rounded=0;orthogonalLoop=1;jettySize=auto;html=1;entryX=0.5;entryY=1;entryDx=0;entryDy=0;entryPerimeter=0;shape=link;" parent="1" source="J3IBmnWqB0hVyUZKpFDS-9" target="J3IBmnWqB0hVyUZKpFDS-4" edge="1">
          <mxGeometry relative="1" as="geometry">
            <Array as="points">
              <mxPoint x="540" y="430" />
              <mxPoint x="650" y="430" />
              <mxPoint x="650" y="320" />
              <mxPoint x="684" y="320" />
            </Array>
          </mxGeometry>
        </mxCell>
        <mxCell id="03zcDBJ4dY8-ipxOE5NL-8" style="edgeStyle=orthogonalEdgeStyle;rounded=0;orthogonalLoop=1;jettySize=auto;html=1;entryX=0.95;entryY=0.94;entryDx=0;entryDy=0;entryPerimeter=0;endArrow=none;endFill=0;" parent="1" source="J3IBmnWqB0hVyUZKpFDS-11" target="J3IBmnWqB0hVyUZKpFDS-3" edge="1">
          <mxGeometry relative="1" as="geometry">
            <Array as="points">
              <mxPoint x="855" y="400" />
              <mxPoint x="547" y="400" />
            </Array>
          </mxGeometry>
        </mxCell>
      </root>
    </mxGraphModel>
  </diagram>
</mxfile>
